<?xml version="1.0" encoding="utf-8"?>
<!-- Generator: Adobe Illustrator 17.1.0, SVG Export Plug-In . SVG Version: 6.00 Build 0)  -->
<!DOCTYPE svg PUBLIC "-//W3C//DTD SVG 1.1//EN" "http://www.w3.org/Graphics/SVG/1.1/DTD/svg11.dtd">
<svg version="1.1" id="Layer_1" xmlns="http://www.w3.org/2000/svg" xmlns:xlink="http://www.w3.org/1999/xlink" x="0px" y="0px"
	 viewBox="0 0 566.9 173" enable-background="new 0 0 566.9 173" xml:space="preserve">
<g>
	<path fill="#9FA1A4" d="M305.8,114.8c-3.6,0-6,1.8-7.5,3.9h-0.1v-3.3c0-0.3-0.3-0.6-0.6-0.6h-1.5v0c-1.2,0.1-1.8,0.9-1.8,2.5v22.2
		v2v1.9c0,0.3,0.3,0.6,0.6,0.6h1.5v0c1.2-0.1,1.8-0.9,1.8-2.5v-15.7c0-4.9,3.4-7.5,7-7.5c4.3,0,7,2.6,7,6.5v16.6c0,0.1,0,0.1,0,0.2
		v1.7c0,0.3,0.3,0.6,0.6,0.6h1.5v0c1.2-0.1,1.8-0.9,1.8-2.5V125C316.1,118.2,310.9,114.8,305.8,114.8z"/>
	<path fill="#9FA1A4" d="M347.4,128.7c0-7.2-4.1-13.9-12.2-13.9c-8,0-12.3,7.4-12.3,14.6c0,7.2,3.8,14.6,12.9,14.6
		c6.6,0,11.1-4,11.1-5.7c0-1.5-0.7-1.9-1.8-1.9c-1.8,0-3.4,4.4-9.5,4.4c-4.9,0-8.3-4.7-8.5-9.7h17.6
		C347.1,131.1,347.4,129.7,347.4,128.7z M327.1,127.9c0.2-4.8,2.8-9.9,8-9.9c5.2,0,7.9,5.1,8,9.9H327.1z"/>
	<path fill="#9FA1A4" d="M366.3,128.4l7.7-10.2c0-0.1,0.1-0.1,0.1-0.2v0l0,0c0-0.1,0.1-0.1,0.1-0.2l0.4-0.6c0,0,0,0,0,0l0,0l0,0
		c0.1-0.2,0.2-0.4,0.2-0.7h0v0c0,0,0,0,0,0c0,0,0,0,0,0l0-1.1c0-0.3-0.3-0.6-0.6-0.6h-1.5v0c-0.8,0-1.3,0.4-2,1.3l-6.9,9.4l-6.9-9.4
		c-0.7-1-1.3-1.3-2.1-1.3c-1,0-1.7,0.8-1.7,1.8c0,0.5,0.1,0.9,0.7,1.6l7.7,10.2l-8.9,12.2c0,0.1-0.1,0.1-0.1,0.2l0,0l-0.1,0.1
		c0,0,0,0.1-0.1,0.1l-0.4,0.6c0,0,0,0,0,0l0,0v0c-0.1,0.2-0.2,0.4-0.2,0.6l0,0v0c0,0,0,0,0,0c0,0,0,0,0,0l0,1.1
		c0,0.3,0.3,0.6,0.6,0.6h1.5v0c0.8,0,1.3-0.4,2-1.3l8-11.3l8,11.3c0.7,1,1.3,1.3,2.1,1.3c1,0,1.7-0.8,1.7-1.8c0-0.5-0.1-0.9-0.7-1.6
		L366.3,128.4z"/>
	<path fill="#9FA1A4" d="M451.8,128.7c0-7.2-4.1-13.9-12.2-13.9c-8,0-12.3,7.4-12.3,14.6c0,7.2,3.8,14.6,12.9,14.6
		c6.7,0,11.1-4,11.1-5.7c0-1.5-0.8-1.9-1.8-1.9c-1.8,0-3.4,4.4-9.5,4.4c-4.9,0-8.3-4.7-8.5-9.7h17.6
		C451.4,131.1,451.8,129.7,451.8,128.7z M431.5,127.9c0.2-4.8,2.8-9.9,8-9.9c5.2,0,7.9,5.1,8,9.9H431.5z"/>
	<path fill="#9FA1A4" d="M507.8,128.7c0-7.2-4.1-13.9-12.2-13.9c-8,0-12.3,7.4-12.3,14.6c0,7.2,3.8,14.6,12.9,14.6
		c6.7,0,11.1-4,11.1-5.7c0-1.5-0.8-1.9-1.8-1.9c-1.8,0-3.4,4.4-9.5,4.4c-4.9,0-8.3-4.7-8.5-9.7h17.6
		C507.5,131.1,507.8,129.7,507.8,128.7z M487.5,127.9c0.2-4.8,2.8-9.9,8-9.9c5.2,0,7.9,5.1,8,9.9H487.5z"/>
	<path fill="#9FA1A4" d="M418.4,106.3H417v0c-1.2,0.1-1.8,0.9-1.8,2.5v30.7v2v1.9c0,0.3,0.3,0.6,0.6,0.6h1.5v0
		c1.2-0.1,1.8-0.9,1.8-2.5v-30.7v-2v-1.9C419,106.6,418.7,106.3,418.4,106.3z"/>
	<path fill="#9FA1A4" d="M519.1,106.3h-1.5v0c-1.2,0.1-1.8,0.9-1.8,2.5v30.7v2v1.9c0,0.3,0.3,0.6,0.6,0.6h1.5v0
		c1.2-0.1,1.8-0.9,1.8-2.5v-30.7v-2v-1.9C519.7,106.6,519.4,106.3,519.1,106.3z"/>
	<path fill="#9FA1A4" d="M393.3,115.1h-0.9c0,0-0.1,0-0.1,0h-2.5v-6.3c0,0,0-0.1,0-0.1v-1.8c0-0.3-0.3-0.6-0.6-0.6h-1.5v0
		c-1.2,0.1-1.8,0.9-1.8,2.5v6.3h-2.5c-1.3,0-1.7,1-1.7,1.6c0,0.6,0.4,1.6,1.7,1.6h2.5v23.2c0,0,0,0.1,0,0.1v1.8
		c0,0.3,0.3,0.6,0.6,0.6h1.5v0c1.2-0.1,1.8-0.9,1.8-2.5v-23.2h2.5c1.3,0,1.6-0.9,1.7-1.6h0v-1.1
		C393.9,115.4,393.7,115.1,393.3,115.1z"/>
	<path fill="#9FA1A4" d="M477.5,114.8H476v0c-1,0.1-1.5,0.7-1.9,1.8l-6.9,20.7h-0.1l-6.9-20.7c-0.4-1.1-1-1.8-2-1.8
		c-1.1,0-1.8,0.9-1.8,1.8c0,0.3,0.1,0.7,0.2,1.1l8.6,24.8c0.4,1.1,1.3,1.4,2,1.4c0.7,0,1.6-0.3,2-1.4l8.5-24.7l0.3-1c0,0,0,0,0,0v0
		l0,0c0-0.1,0-0.2,0.1-0.3h0l0,0c0,0,0,0,0,0c0,0,0,0,0,0l0-1.1C478.1,115,477.8,114.8,477.5,114.8z"/>
	<path fill="#9FA1A4" d="M85.6,37.9c-8,0-12.9,3.5-17,9.4c-4.2-7.1-9.8-9.4-15.2-9.4c-8.3,0-11.8,4-13.9,6.8l-0.2-0.2v-1.7
		c0-0.2,0-0.3,0-0.5v-3.1c0-0.7-0.6-1.3-1.3-1.3l0,0h-3.3v0c-2.8,0-4.6,1.9-4.6,4.9v41.7h0v8.7c0,0.7,0.6,1.3,1.3,1.3v0h3.3v0
		c0,0,0,0,0,0c2.8,0,4.6-1.9,4.6-4.9v-31c0-7.9,4.4-12.8,11.8-12.8c7.5,0,11.9,4.9,11.9,12.8v31c0,0,0,0.1,0,0.1v3.5
		c0,0.7,0.6,1.3,1.3,1.3h3.3l0,0c0,0,0,0,0,0c2.8,0,4.6-1.9,4.6-4.9v-31c0-7.9,4.4-12.8,11.8-12.8c7.5,0,11.9,4.9,11.9,12.8v31
		c0,0,0,0.1,0,0.1v3.5c0,0.7,0.6,1.3,1.3,1.3l0,0h3.3l0,0c0,0,0,0,0,0c2.8,0,4.6-1.9,4.6-4.9V58.9C104.9,43.3,94.2,37.9,85.6,37.9z"
		/>
	<path fill="#9FA1A4" d="M123.4,52.8c0-4.7,4.5-7,9.7-7c8.7,0,10.3,5.6,14.2,5.6c2.8,0,4.2-1.8,4.2-3.7c0-5.7-10.8-9.8-18.4-9.8
		c-9.3,0-18.8,5.4-18.8,15.6c0,15.4,29.5,14.8,29.5,25.6c0,3.7-4.1,7.5-10.7,7.5c-10,0-13.3-6.8-17.4-6.8c-2,0-3.7,1.7-3.7,4.2
		c0,4.7,9.2,10.5,20.8,10.5c10.3,0,20.2-5.5,20.2-17.1C152.9,61.4,123.4,62.4,123.4,52.8z"/>
</g>
<g>
	<path fill="#FFDD00" d="M259.1,35c-18.1,0-32.7,14.6-32.7,32.7c0,18.1,14.6,32.8,32.7,32.8c18.1,0,32.8-14.7,32.8-32.8
		C291.9,49.6,277.2,35,259.1,35z M259.1,83.2c-8.3,0-15.5-7.1-15.5-15.5c0-8.3,7.2-15.5,15.5-15.5c8.4,0,15.5,7.2,15.5,15.5
		C274.6,76.1,267.5,83.2,259.1,83.2z"/>
	<path fill="#FFDD00" d="M327.4,35c-18.1,0-32.7,14.6-32.7,32.7c0,18.1,14.6,32.8,32.7,32.8c18.1,0,32.8-14.7,32.8-32.8
		C360.2,49.6,345.5,35,327.4,35z M327.4,83.2c-8.3,0-15.5-7.1-15.5-15.5c0-8.3,7.2-15.5,15.5-15.5c8.4,0,15.5,7.2,15.5,15.5
		C342.9,76.1,335.8,83.2,327.4,83.2z"/>
	<path fill="#FFDD00" d="M435.7,35C417.6,35,403,49.6,403,67.7c0,18.1,14.6,32.8,32.7,32.8c18.1,0,32.8-14.7,32.8-32.8
		C468.5,49.6,453.8,35,435.7,35z M435.7,83.2c-8.3,0-15.5-7.1-15.5-15.5c0-8.3,7.2-15.5,15.5-15.5c8.4,0,15.5,7.2,15.5,15.5
		C451.2,76.1,444.1,83.2,435.7,83.2z"/>
	<path fill="#FFDD00" d="M504,35c-18.1,0-32.7,14.6-32.7,32.7c0,18.1,14.6,32.8,32.7,32.8c18.1,0,32.8-14.7,32.8-32.8
		C536.7,49.6,522.1,35,504,35z M504,83.2c-8.3,0-15.5-7.1-15.5-15.5c0-8.3,7.2-15.5,15.5-15.5c8.4,0,15.5,7.2,15.5,15.5
		C519.5,76.1,512.3,83.2,504,83.2z"/>
	<path fill="#FFDD00" d="M200.9,36.3l-0.3-0.1c-0.8-0.3-1.7-0.5-2.7-0.7l-0.5-0.1c-0.8-0.2-1.6-0.3-2.6-0.4c-0.2,0-0.4-0.1-0.6-0.1
		c-1.1-0.1-2.1-0.2-3.2-0.2c-17.9,0-32.5,14.6-32.5,32.5c0,11.5,6.1,22.2,16.2,28.2c0.2,0.1,0.4,0.3,0.5,0.3l0.5,0.3
		c2.7,1.5,5.5,2.5,8.2,3c0.2,0,0.4,0.1,0.5,0.1v5.7v4v1.3v3.3c0,0.7,0.6,1.3,1.3,1.3l0,0h5.4v0c17.9-0.1,32.4-14.7,32.4-32.6V67.2
		C223.6,53,214.5,40.6,200.9,36.3z M206.6,68.6c0,15.5-14.4,21.8-14.4,21.8s5.2-5.6,5.5-8.8c-2,1-4.2,1.5-6.6,1.5
		c-8.3,0-15.5-7.1-15.5-15.5c0-8.3,7.2-15.5,15.5-15.5c8.4,0,15.5,7.2,15.5,15.5c0,0.1,0,0.2,0,0.3
		C206.6,68.2,206.6,68.4,206.6,68.6z"/>
	<path fill="#FFDD00" d="M404.7,35h-8.1h-3.4l0,0c-16.5,0-29.9,13.2-30.2,29.7h0v0.6v2.3c0,0,0,0.1,0,0.1c0,0,0,0.1,0,0.1v3.1v21
		c0,0,0,0,0,0v7.3c0,0.7,0.6,1.3,1.3,1.3h7.3c0,0,0,0,0,0c2.4,0,4.6-1,6.2-2.6c1.3-1.4,2.2-3.2,2.4-5.2v0V91V68.7v-1
		c0-8.3,7.1-15.5,15.5-15.5c0,0,0,0,0.1,0h1.8c4.7,0,8.4-3.9,8.5-8.5h0v-5.8v-1.5C406,35.6,405.4,35,404.7,35z"/>
</g>
</svg>
